<?xml version="1.0" encoding="UTF-8"?><svg id="a" xmlns="http://www.w3.org/2000/svg" viewBox="0 0 664.27 662.65"><defs><style>.e{fill:#fff;}.f{fill:none;}</style></defs><g id="b"><g id="c"><rect class="f" width="664.27" height="662.65"/></g><g id="d"><path class="e" d="M110.71,358.93c-15.29-.17-27.82,12.05-27.99,27.3-.02,1.49.09,2.98.31,4.46,2.69,13.83,14.95,23.73,29.06,23.47h98.26l-145.31,144.95c-11.35,9.97-12.59,27.18-2.77,38.65,4.94,6.39,12.68,10,20.76,9.66,7.3-.1,14.26-3.08,19.37-8.28l146.69-146.33v98.02c-.26,14.08,9.67,26.31,23.53,28.99,15.11,2.29,29.22-8.08,31.52-23.15.22-1.47.33-2.96.31-4.46v-165.66c0-15.25-12.39-27.61-27.68-27.61H110.71Z"/><path class="e" d="M604.76,66.26c-8.85-12.44-26.12-15.36-38.59-6.54-1.56,1.11-3.01,2.37-4.31,3.78l-146.69,146.33v-98.02c.26-14.08-9.67-26.31-23.53-28.99-15.11-2.29-29.22,8.08-31.52,23.15-.22,1.47-.33,2.96-.31,4.46v165.66c0,15.25,12.39,27.61,27.68,27.61h164.68c14.12.26,26.38-9.64,29.06-23.47,2.29-15.08-8.1-29.15-23.21-31.44-1.48-.22-2.97-.33-4.47-.31h-99.64l146.69-144.95c9.38-10.2,11.06-25.27,4.15-37.27Z"/></g></g></svg>