<?xml version="1.0" encoding="UTF-8"?><svg id="a" xmlns="http://www.w3.org/2000/svg" viewBox="0 0 622.55 662.64"><defs><style>.e{fill:#fff;}.f{fill:none;}</style></defs><g id="b"><g id="c"><rect class="f" width="622.55" height="662.64"/></g><g id="d"><path class="e" d="M241.24,367.21l-137.48,146.33v-98.02c.24-14.08-9.06-26.31-22.05-28.99-14.16-2.29-27.39,8.08-29.54,23.15-.21,1.47-.31,2.96-.29,4.46v165.66c0,15.25,11.61,27.61,25.94,27.61h154.34c13.23.26,24.72-9.64,27.24-23.47,2.15-15.08-7.59-29.15-21.75-31.44-1.39-.22-2.79-.33-4.19-.31h-93.38l136.18-144.95c9.69-9.74,11.34-25.51,3.89-37.27-7.59-12.03-22.9-15.23-34.2-7.15-1.74,1.24-3.32,2.72-4.71,4.39Z"/><path class="e" d="M389.09,55.22c-14.33-.17-26.07,12.05-26.23,27.3-.02,1.49.08,2.98.29,4.46,2.52,13.83,14.01,23.73,27.24,23.47h92.09l-136.18,144.95c-10.64,9.97-11.8,27.18-2.59,38.65,4.63,6.39,11.88,10,19.45,9.66,6.84-.1,13.37-3.08,18.16-8.28l137.48-146.33v98.02c-.24,14.08,9.06,26.31,22.05,28.99,14.16,2.29,27.39-8.08,29.54-23.15.21-1.47.31-2.96.29-4.46V82.83c0-15.25-11.61-27.61-25.94-27.61h-155.64Z"/></g></g></svg>