<?xml version="1.0" encoding="UTF-8"?><svg id="a" xmlns="http://www.w3.org/2000/svg" viewBox="0 0 733.33 600"><defs><style>.b,.c{fill:#fff;}.c{fill-rule:evenodd;}</style></defs><path class="c" d="M351.77,2.12c9.06,4,14.9,12.97,14.9,22.87v550c0,13.81-11.18,25.01-24.98,25.02-6.23,0-12.24-2.32-16.85-6.52l-176.17-160.17H58.33c-32.22,0-58.33-26.12-58.33-58.33v-150c0-32.2,26.13-58.33,58.33-58.33h90.33L324.83,6.48c7.33-6.65,17.89-8.35,26.93-4.33v-.03ZM316.67,81.48l-141.5,128.67c-4.61,4.19-10.61,6.5-16.83,6.5H58.33c-4.6,0-8.33,3.73-8.33,8.33v150c0,4.6,3.73,8.33,8.33,8.33h100c6.22,0,12.23,2.31,16.83,6.5l141.5,128.67V81.48Z"/><path class="b" d="M590.6,40.72c9.76-9.75,25.57-9.75,35.33,0,143.2,143.2,143.2,375.33,0,518.53-10.1,9.41-25.92,8.85-35.33-1.25-8.95-9.6-8.95-24.48,0-34.09,123.67-123.66,123.69-324.16.03-447.83-.01-.01-.02-.02-.03-.03-9.75-9.76-9.75-25.57,0-35.33h0Z"/><path class="b" d="M508.1,158.55c-9.77-9.77-25.6-9.77-35.37,0s-9.77,25.6,0,35.37c58.58,58.58,58.58,153.55,0,212.13h0c-9.41,10.1-8.85,25.92,1.25,35.33,9.6,8.95,24.49,8.95,34.09,0,78.1-78.1,78.1-204.73,0-282.83h.03Z"/></svg>