<?xml version="1.0" encoding="UTF-8"?><svg id="a" xmlns="http://www.w3.org/2000/svg" viewBox="0 0 272.3 224.5"><defs><style>.b{fill:#fff;}.c{fill:#3c3c3b;}.d{fill:#ededed;}</style></defs><rect class="c" x="4.91" y="19.11" width="104.78" height="179.01"/><path class="d" d="M144.21,31.02c32.58.76,50.73,28.31,61.01,55.69-8.67-5.93-17.56-10.08-27.04-12.73-1.08-.3-4.21,1.75-3.66,2.67l1.97,3.25c11.77,2.83,21.22,8.29,31.02,15.9,1.84.69,5.06,1.21,6.15.36.94-.73,2.11-3.22,2.12-4.63l.16-27.96c0-1.34-2.26-3.66-3.44-3.34-.98.27-2.36,2.23-2.44,3.41l-1.13,15.75c-12.53-28.5-31.19-53.33-64.76-54.36-1.37-.04-3.19,2.17-3.07,3.36.09.98,1.98,2.61,3.1,2.63Z"/><path class="d" d="M260.17,110.13l-194.05-.07c-6.75,1.46-11.61,6.64-11.61,13.61l.06,87.72c0,7.78,6.89,13.11,14.36,13.11l189.87-.04c8.31,0,13.44-6.74,13.45-13.88l.04-86.06c0-6.58-4.38-14.39-12.13-14.39ZM252.89,219.67l-179.01-.05.03-104.78,179.01.05-.03,104.78ZM262.62,180.8l-2.71-.14-.27-24.73c0-.75.95-2.16,1.35-2.61.41-.45,1.82,1.87,1.82,2.5l-.19,24.98Z"/><rect class="c" x="73.89" y="114.86" width="179.01" height="104.78"/><path class="b" d="M260.99,153.32c-.41.45-1.36,1.86-1.35,2.61l.27,24.73,2.71.14.19-24.98c0-.63-1.41-2.94-1.82-2.5Z"/><path class="d" d="M4.84,197.9V19.22s104.83,0,104.83,0l-.02,85.89h4.94s-.02-91.72-.02-91.72C114.58,7.01,109.51,0,102.61,0H11.86C4.93.01,0,6.92,0,13.51v191.17c.81,7.43,6.54,12.21,13.7,12.55h32.08s-.08-19.37-.08-19.37l-40.86.04ZM70.84,9.32v3.14s-27.15.04-27.15.04v-3.14s27.15-.04,27.15-.04Z"/><rect class="b" x="43.69" y="9.34" width="27.15" height="3.14" transform="translate(-.02 .08)"/></svg>